<svg viewBox="0 0 565 73" xmlns="http://www.w3.org/2000/svg" class="w-30 h-4 tablet:w-48 tablet:h-6 desktop:w-56 desktop:h-7" data-testid="" height="16" role="presentation"><path d="m48.545 3.4411-1.9581 37.664c-0.0934 1.7968-1.6789 3.175-3.5411 3.0781l-39.036-2.0294c-3.0039-0.1562-4.3262-3.7389-2.0955-5.6779l40.994-35.634c2.2307-1.939 5.7873-0.29857 5.6366 2.5997z" clip-rule="evenodd" fill="#0083ED" fill-rule="evenodd"></path><path d="m32.018 45.792-1.2323 23.701c-0.1506 2.8983 3.406 4.5388 5.6361 2.5997l40.994-35.634c2.2313-1.939 0.9089-5.5217-2.0949-5.6779l-25.925-1.3478-0.7259 13.962c-0.0934 1.7968-1.6788 3.175-3.5411 3.0782l-13.11-0.6816z" fill="#5DA3E5"></path><path d="m131.3 23.726c-7.728 0-14.003 3.7649-14.003 11.097 0 12.484 18.428 9.4453 18.428 15.126 0 1.9155-1.915 2.7742-4.491 2.7742-3.897 0-8.653-1.5853-12.352-4.4255l-3.302 6.8693c4.029 3.2365 9.643 4.9539 15.39 4.9539 8.058 0 14.465-3.831 14.465-11.097 0.066-12.55-18.693-9.8416-18.693-15.192 0-1.8494 1.718-2.642 4.096-2.642 2.972 0 6.935 1.255 10.832 3.4347l3.501-6.9354c-3.963-2.5099-8.983-3.9631-13.871-3.9631z" fill="#253640"></path><path d="m171.61 59.724h9.974l-0.066-23.184c-0.066-7.9921-5.549-12.748-15.06-12.748-6.209 0-10.766 1.4531-16.05 4.0951l3.17 7.0015c3.699-2.0476 7.398-3.1044 10.568-3.1044 4.888 0 7.398 2.1796 7.398 5.9446v0.6605h-9.776c-8.718 0.066-13.54 4.0291-13.54 10.7 0 6.4731 4.624 11.097 12.219 11.097 4.954 0 8.785-1.6513 11.163-4.6235v4.1612zm-8.322-6.8033c-3.435 0-5.549-1.7834-5.549-4.4915 0-2.8402 1.916-4.0291 5.813-4.0291h7.992v3.1705c-0.594 3.0383-3.963 5.3501-8.256 5.3501z" fill="#253640"></path><path d="m207.29 59.724 13.408-35.536h-10.105l-8.323 25.892-8.388-25.892-10.502 0.066 13.474 35.47h10.436z" fill="#253640"></path><path d="m239.18 23.858c-10.832 0-18.296 7.2657-18.296 18.23 0 10.766 7.199 18.032 18.56 18.032 6.407 0 11.625-2.3118 15.192-6.2749l-5.35-5.4162c-2.444 2.4439-5.614 3.7649-8.983 3.7649-4.558 0-7.992-2.642-9.181-7.1335h25.496c0.858-12.946-4.954-21.202-17.438-21.202zm-8.256 15.192c0.792-4.6896 3.831-7.728 8.322-7.728 4.69 0 7.728 3.0384 7.86 7.728h-16.182z" fill="#253640"></path><path d="m279.04 60.12c-3.478 0-6.605-0.7706-9.379-2.3118s-4.954-3.6548-6.539-6.3409c-1.541-2.7301-2.312-5.8125-2.312-9.2472 0-3.4346 0.771-6.495 2.312-9.1811 1.585-2.7301 3.765-4.8437 6.539-6.3409 2.774-1.5412 5.901-2.3118 9.379-2.3118 3.479 0 6.583 0.7706 9.313 2.3118 2.775 1.4972 4.932 3.6108 6.473 6.3409 1.586 2.6861 2.378 5.7465 2.378 9.1811 0 3.4347-0.792 6.5171-2.378 9.2472-1.541 2.6861-3.698 4.7997-6.473 6.3409-2.73 1.5412-5.834 2.3118-9.313 2.3118zm0-5.5483c2.246 0 4.25-0.5064 6.011-1.5192 1.805-1.0568 3.214-2.5099 4.227-4.3594 1.013-1.8934 1.519-4.0511 1.519-6.473 0-2.4218-0.506-4.5575-1.519-6.4069-1.013-1.8935-2.422-3.3466-4.227-4.3594-1.761-1.0128-3.765-1.5192-6.011-1.5192-2.245 0-4.271 0.5064-6.076 1.5192-1.762 1.0128-3.171 2.4659-4.228 4.3594-1.013 1.8494-1.519 3.9851-1.519 6.4069 0 2.4219 0.506 4.5796 1.519 6.473 1.057 1.8495 2.466 3.3026 4.228 4.3594 1.805 1.0128 3.831 1.5192 6.076 1.5192z" fill="#253640"></path><path d="m319.71 24.386c4.448 0 7.97 1.299 10.568 3.8971 2.642 2.5539 3.963 6.3188 3.963 11.295v20.146h-6.34v-19.419c0-3.3907-0.815-5.9446-2.444-7.662-1.63-1.7173-3.963-2.576-7.002-2.576-3.434 0-6.142 1.0128-8.124 3.0384-1.982 1.9815-2.972 4.8437-2.972 8.5866v18.032h-6.341v-35.007h6.076v5.2841c1.277-1.8054 2.995-3.1925 5.152-4.1612 2.202-0.9688 4.69-1.4532 7.464-1.4532z" fill="#253640"></path><path d="m359.7 23.858c-10.832 0-18.296 7.2657-18.296 18.23 0 10.766 7.2 18.032 18.561 18.032 6.407 0 11.625-2.3118 15.191-6.2749l-5.35-5.4162c-2.444 2.4439-5.614 3.7649-8.983 3.7649-4.557 0-7.992-2.642-9.181-7.1335h25.496c0.859-12.946-4.954-21.202-17.438-21.202zm-8.256 15.192c0.793-4.6896 3.831-7.728 8.323-7.728 4.689 0 7.728 3.0384 7.86 7.728h-16.183z" fill="#253640"></path><path d="m405.08 23.792c-5.548 0.066-9.776 2.1797-12.286 6.6051v-6.2088h-10.171v35.536h10.171v-17.504c0-5.218 3.039-9.049 8.125-9.115 4.359 0 7.001 2.7741 7.001 7.2656v19.353h10.172v-22.325c0-8.3224-5.086-13.606-13.012-13.606z" fill="#253640"></path><path d="m440.89 23.858c-10.832 0-18.296 7.2657-18.296 18.23 0 10.766 7.199 18.032 18.56 18.032 6.407 0 11.625-2.3118 15.192-6.2749l-5.35-5.4162c-2.444 2.4439-5.615 3.7649-8.983 3.7649-4.558 0-7.992-2.642-9.181-7.1335h25.495c0.859-12.946-4.953-21.202-17.437-21.202zm-8.256 15.192c0.792-4.6896 3.831-7.728 8.322-7.728 4.69 0 7.728 3.0384 7.86 7.728h-16.182z" fill="#253640"></path><path d="m473.97 24.188h-10.172v35.536h10.172v-17.107c0-6.0106 4.491-9.9076 11.757-9.2471v-9.5774c-5.284 0.066-9.313 2.4439-11.757 6.8032v-6.4069z" fill="#253640"></path><path d="m523.33 24.188h-10.106v4.8217c-2.444-3.3025-6.143-5.218-10.965-5.152-9.049 0-15.257 6.8033-15.257 16.843 0 10.304 6.34 17.173 15.522 17.173 4.689 0 8.322-1.8494 10.7-5.1519v4.0291c0 4.8217-3.699 7.9261-9.512 7.9261-4.029 0-7.794-1.255-11.03-3.5668l-3.765 7.1336c4.095 2.7741 9.445 4.6896 15.456 4.6896 11.361 0 18.957-6.407 18.957-16.513v-32.233zm-18.429 25.958c-5.02 0-8.322-3.7649-8.388-9.1811 0.066-5.4162 3.435-9.2472 8.388-9.2472 4.954 0 8.323 3.7649 8.323 9.2472 0 5.4162-3.369 9.1811-8.323 9.1811z" fill="#253640"></path><path d="m564.2 24.188h-10.172l-8.389 24.439-9.313-24.439h-10.502l14.729 34.809-0.99 1.9815c-0.991 2.1137-2.576 3.1705-4.69 3.1705-1.651 0-3.038-0.5945-4.623-1.9155l-4.294 7.3317c2.906 2.3778 5.879 3.4346 9.644 3.4346 6.142 0 10.502-3.0383 13.012-9.3132l15.588-39.498z" fill="#253640"></path></svg>